{
  "accessors": [
    {
      "bufferView": 2,
      "componentType": 5126,
      "count": 2804,
      "max": [
        0.030828462913632393,
        0.2512930631637573,
        0.030828462913632393
      ],
      "min": [
        -0.030828462913632393,
        1.2100755952815234e-08,
        -0.030828462913632393
      ],
      "type": "VEC3"
    },
    {
      "bufferView": 2,
      "byteOffset": 33648,
      "componentType": 5126,
      "count": 2804,
      "max": [
        1.0,
        1.0,
        1.0
      ],
      "min": [
        -1.0,
        -1.0,
        -1.0
      ],
      "type": "VEC3"
    },
    {
      "bufferView": 1,
      "componentType": 5126,
      "count": 2804,
      "max": [
        1.0,
        0.9999998807907104
      ],
      "min": [
        0.0,
        -1.4755866527557373
      ],
      "type": "VEC2"
    },
    {
      "bufferView": 0,
      "componentType": 5125,
      "count": 16032,
      "type": "SCALAR"
    },
    {
      "bufferView": 2,
      "byteOffset": 67296,
      "componentType": 5126,
      "count": 4845,
      "max": [
        0.012492232024669647,
        0.26603400707244873,
        0.012492232024669647
      ],
      "min": [
        -0.012492232024669647,
        0.21421672403812408,
        -0.012492232024669647
      ],
      "type": "VEC3"
    },
    {
      "bufferView": 2,
      "byteOffset": 125436,
      "componentType": 5126,
      "count": 4845,
      "max": [
        1.0,
        1.0,
        1.0
      ],
      "min": [
        -1.0,
        -0.6403425931930542,
        -1.0
      ],
      "type": "VEC3"
    },
    {
      "bufferView": 1,
      "byteOffset": 22432,
      "componentType": 5126,
      "count": 4845,
      "max": [
        1.818509578704834,
        1.1723923683166504
      ],
      "min": [
        -0.7507334351539612,
        -1.602057933807373
      ],
      "type": "VEC2"
    },
    {
      "bufferView": 0,
      "byteOffset": 64128,
      "componentType": 5125,
      "count": 27552,
      "type": "SCALAR"
    },
    {
      "bufferView": 2,
      "byteOffset": 183576,
      "componentType": 5126,
      "count": 792,
      "max": [
        0.031828463077545166,
        0.16101643443107605,
        0.031828463077545166
      ],
      "min": [
        -0.031828463077545166,
        0.019837146624922752,
        -0.03176458552479744
      ],
      "type": "VEC3"
    },
    {
      "bufferView": 2,
      "byteOffset": 193080,
      "componentType": 5126,
      "count": 792,
      "max": [
        1.0,
        1.0,
        1.0
      ],
      "min": [
        -1.0,
        -1.0,
        -1.0
      ],
      "type": "VEC3"
    },
    {
      "bufferView": 1,
      "byteOffset": 61192,
      "componentType": 5126,
      "count": 792,
      "max": [
        1.6809850931167603,
        1.0889102220535278
      ],
      "min": [
        -0.7112599015235901,
        -0.06425893306732178
      ],
      "type": "VEC2"
    },
    {
      "bufferView": 0,
      "byteOffset": 174336,
      "componentType": 5125,
      "count": 3840,
      "type": "SCALAR"
    },
    {
      "bufferView": 2,
      "byteOffset": 202584,
      "componentType": 5126,
      "count": 72,
      "max": [
        0.0006934739067219198,
        0.16101643443107605,
        -0.03076699934899807
      ],
      "min": [
        -0.000693475129082799,
        0.019837146624922752,
        -0.03179245814681053
      ],
      "type": "VEC3"
    },
    {
      "bufferView": 2,
      "byteOffset": 203448,
      "componentType": 5126,
      "count": 72,
      "max": [
        0.06949874758720398,
        1.0,
        1.0
      ],
      "min": [
        -0.06949874758720398,
        -1.0,
        -1.0
      ],
      "type": "VEC3"
    },
    {
      "bufferView": 1,
      "byteOffset": 67528,
      "componentType": 5126,
      "count": 72,
      "max": [
        1.6809850931167603,
        -0.06454932689666748
      ],
      "min": [
        -0.07680997997522354,
        -0.0747525691986084
      ],
      "type": "VEC2"
    },
    {
      "bufferView": 0,
      "byteOffset": 189696,
      "componentType": 5125,
      "count": 240,
      "type": "SCALAR"
    },
    {
      "bufferView": 2,
      "byteOffset": 204312,
      "componentType": 5126,
      "count": 1837,
      "max": [
        0.03031747415661812,
        0.20394545793533325,
        0.03031747415661812
      ],
      "min": [
        -0.03031747415661812,
        0.001300752628594637,
        -0.03031747415661812
      ],
      "type": "VEC3"
    },
    {
      "bufferView": 2,
      "byteOffset": 226356,
      "componentType": 5126,
      "count": 1837,
      "max": [
        1.0,
        1.0,
        1.0
      ],
      "min": [
        -1.0,
        -1.0,
        -1.0
      ],
      "type": "VEC3"
    },
    {
      "bufferView": 1,
      "byteOffset": 68104,
      "componentType": 5126,
      "count": 1837,
      "max": [
        1.0,
        0.9999998807907104
      ],
      "min": [
        0.0,
        -1.029979944229126
      ],
      "type": "VEC2"
    },
    {
      "bufferView": 0,
      "byteOffset": 190656,
      "componentType": 5125,
      "count": 10272,
      "type": "SCALAR"
    },
    {
      "bufferView": 2,
      "byteOffset": 248400,
      "componentType": 5126,
      "count": 823,
      "max": [
        0.030893521383404732,
        0.21570733189582825,
        0.030893521383404732
      ],
      "min": [
        -0.030893521383404732,
        -0.016338322311639786,
        -0.030893521383404732
      ],
      "type": "VEC3"
    },
    {
      "bufferView": 2,
      "byteOffset": 258276,
      "componentType": 5126,
      "count": 823,
      "max": [
        0.9969218969345093,
        1.0,
        0.9969218969345093
      ],
      "min": [
        -0.9969218969345093,
        -1.0,
        -0.9969218969345093
      ],
      "type": "VEC3"
    },
    {
      "bufferView": 1,
      "byteOffset": 82800,
      "componentType": 5126,
      "count": 823,
      "max": [
        1.0102062225341797,
        1.0102062225341797
      ],
      "min": [
        -0.010206177830696106,
        -0.010206222534179688
      ],
      "type": "VEC2"
    },
    {
      "bufferView": 0,
      "byteOffset": 231744,
      "componentType": 5125,
      "count": 3780,
      "type": "SCALAR"
    },
    {
      "bufferView": 2,
      "byteOffset": 268152,
      "componentType": 5126,
      "count": 2232,
      "max": [
        0.012891990132629871,
        0.21719667315483093,
        0.012891991063952446
      ],
      "min": [
        -0.012891991063952446,
        0.17413751780986786,
        -0.012891991063952446
      ],
      "type": "VEC3"
    },
    {
      "bufferView": 2,
      "byteOffset": 294936,
      "componentType": 5126,
      "count": 2232,
      "max": [
        0.9921818971633911,
        0.6974294781684875,
        0.9921818971633911
      ],
      "min": [
        -0.9921818971633911,
        -1.0,
        -0.9921818971633911
      ],
      "type": "VEC3"
    },
    {
      "bufferView": 1,
      "byteOffset": 89384,
      "componentType": 5126,
      "count": 2232,
      "max": [
        2.112605094909668,
        0.9557369947433472
      ],
      "min": [
        -3.385345220565796,
        0.07920598983764648
      ],
      "type": "VEC2"
    },
    {
      "bufferView": 0,
      "byteOffset": 246864,
      "componentType": 5125,
      "count": 6624,
      "type": "SCALAR"
    },
    {
      "bufferView": 2,
      "byteOffset": 321720,
      "componentType": 5126,
      "count": 128,
      "max": [
        0.012789705768227577,
        0.21812288463115692,
        0.012789706699550152
      ],
      "min": [
        -0.012789706699550152,
        0.1790187954902649,
        -0.012789706699550152
      ],
      "type": "VEC3"
    },
    {
      "bufferView": 2,
      "byteOffset": 323256,
      "componentType": 5126,
      "count": 128,
      "max": [
        0.9916964173316956,
        0.9944304823875427,
        0.9916964173316956
      ],
      "min": [
        -0.9916964173316956,
        0.022598713636398315,
        -0.9916919469833374
      ],
      "type": "VEC3"
    },
    {
      "bufferView": 1,
      "byteOffset": 107240,
      "componentType": 5126,
      "count": 128,
      "max": [
        0.1392832100391388,
        0.9211087226867676
      ],
      "min": [
        0.07233002781867981,
        0.8940812945365906
      ],
      "type": "VEC2"
    },
    {
      "bufferView": 0,
      "byteOffset": 273360,
      "componentType": 5125,
      "count": 498,
      "type": "SCALAR"
    },
    {
      "bufferView": 2,
      "byteOffset": 324792,
      "componentType": 5126,
      "count": 654,
      "max": [
        0.030321210622787476,
        0.16428256034851074,
        0.030321210622787476
      ],
      "min": [
        -0.030321210622787476,
        -0.014853477478027344,
        -0.030321210622787476
      ],
      "type": "VEC3"
    },
    {
      "bufferView": 2,
      "byteOffset": 332640,
      "componentType": 5126,
      "count": 654,
      "max": [
        0.9969218969345093,
        0.9875648021697998,
        0.9969218969345093
      ],
      "min": [
        -0.9969218969345093,
        -1.0,
        -0.9969218969345093
      ],
      "type": "VEC3"
    },
    {
      "bufferView": 1,
      "byteOffset": 108264,
      "componentType": 5126,
      "count": 654,
      "max": [
        1.0008535385131836,
        1.0008535385131836
      ],
      "min": [
        -0.0008534949738532305,
        -0.0008535385131835938
      ],
      "type": "VEC2"
    },
    {
      "bufferView": 0,
      "byteOffset": 275352,
      "componentType": 5125,
      "count": 2772,
      "type": "SCALAR"
    },
    {
      "bufferView": 2,
      "byteOffset": 340488,
      "componentType": 5126,
      "count": 24,
      "max": [
        0.018518071621656418,
        0.1422666311264038,
        0.030920816585421562
      ],
      "min": [
        -0.018518073484301567,
        0.008922351524233818,
        0.030881335958838463
      ],
      "type": "VEC3"
    },
    {
      "bufferView": 2,
      "byteOffset": 340776,
      "componentType": 5126,
      "count": 24,
      "max": [
        1.0,
        1.0,
        1.0
      ],
      "min": [
        -1.0,
        -1.0,
        -1.0
      ],
      "type": "VEC3"
    },
    {
      "bufferView": 1,
      "byteOffset": 113496,
      "componentType": 5126,
      "count": 24,
      "max": [
        0.9098402261734009,
        1.215430498123169
      ],
      "min": [
        0.09015956521034241,
        -0.21543049812316895
      ],
      "type": "VEC2"
    },
    {
      "bufferView": 0,
      "byteOffset": 286440,
      "componentType": 5125,
      "count": 36,
      "type": "SCALAR"
    }
  ],
  "asset": {
    "extras": {
      "author": "wingstech.3d (https://sketchfab.com/wingstech.3d)",
      "license": "CC-BY-4.0 (http://creativecommons.org/licenses/by/4.0/)",
      "source": "https://sketchfab.com/3d-models/beer-bottels-41d3b6e39d614e809583868874e7d66a",
      "title": "Beer Bottels"
    },
    "generator": "Sketchfab-16.45.0",
    "version": "2.0"
  },
  "bufferViews": [
    {
      "buffer": 0,
      "byteLength": 286584,
      "name": "floatBufferViews",
      "target": 34963
    },
    {
      "buffer": 0,
      "byteLength": 113688,
      "byteOffset": 286584,
      "byteStride": 8,
      "name": "floatBufferViews",
      "target": 34962
    },
    {
      "buffer": 0,
      "byteLength": 341064,
      "byteOffset": 400272,
      "byteStride": 12,
      "name": "floatBufferViews",
      "target": 34962
    }
  ],
  "buffers": [
    {
      "byteLength": 741336,
      "uri": "scene.bin"
    }
  ],
  "extensionsUsed": [
    "KHR_materials_specular",
    "KHR_materials_transmission"
  ],
  "images": [
    {
      "uri": "textures/Material.004_baseColor.png"
    },
    {
      "uri": "textures/Material.008_baseColor.png"
    }
  ],
  "materials": [
    {
      "alphaMode": "BLEND",
      "doubleSided": true,
      "extensions": {
        "KHR_materials_specular": {
          "specularColorFactor": [
            1.0,
            1.0,
            1.0
          ],
          "specularFactor": 1.0
        }
      },
      "name": "Material.006",
      "pbrMetallicRoughness": {
        "baseColorFactor": [
          0.473532,
          0.473532,
          0.473532,
          0.35809632943643255
        ],
        "roughnessFactor": 0.0
      }
    },
    {
      "doubleSided": true,
      "name": "Material.005",
      "pbrMetallicRoughness": {
        "baseColorFactor": [
          0.760535,
          0.644491,
          0.309476,
          1.0
        ],
        "roughnessFactor": 0.279528
      }
    },
    {
      "alphaMode": "BLEND",
      "doubleSided": true,
      "name": "Material.004",
      "pbrMetallicRoughness": {
        "baseColorTexture": {
          "index": 0
        },
        "metallicFactor": 0.0
      }
    },
    {
      "alphaMode": "BLEND",
      "doubleSided": true,
      "extensions": {
        "KHR_materials_specular": {
          "specularColorFactor": [
            1.0,
            1.0,
            1.0
          ],
          "specularFactor": 1.0
        },
        "KHR_materials_transmission": {
          "transmissionFactor": 1.0
        }
      },
      "name": "Material.001",
      "pbrMetallicRoughness": {
        "baseColorFactor": [
          0.473532,
          0.03560130000000001,
          0.049706600000000066,
          0.25
        ],
        "metallicFactor": 0.0,
        "roughnessFactor": 0.2
      }
    },
    {
      "alphaMode": "BLEND",
      "doubleSided": true,
      "name": "Material",
      "pbrMetallicRoughness": {
        "baseColorFactor": [
          0.8,
          0.8,
          0.8,
          0.18133388596993819
        ],
        "roughnessFactor": 0.05
      }
    },
    {
      "doubleSided": true,
      "extensions": {
        "KHR_materials_specular": {
          "specularColorFactor": [
            1.0,
            1.0,
            1.0
          ],
          "specularFactor": 1.0
        }
      },
      "name": "Material.009",
      "pbrMetallicRoughness": {
        "baseColorFactor": [
          0.265332,
          0.0171251,
          0.0191536,
          1.0
        ],
        "roughnessFactor": 0.28
      }
    },
    {
      "doubleSided": true,
      "extensions": {
        "KHR_materials_specular": {
          "specularColorFactor": [
            1.0,
            1.0,
            1.0
          ],
          "specularFactor": 0.0
        }
      },
      "name": "Material.003",
      "pbrMetallicRoughness": {
        "baseColorFactor": [
          0.266331,
          0.242757,
          0.231448,
          1.0
        ]
      }
    },
    {
      "alphaMode": "BLEND",
      "doubleSided": true,
      "extensions": {
        "KHR_materials_specular": {
          "specularColorFactor": [
            1.0,
            1.0,
            1.0
          ],
          "specularFactor": 1.0
        },
        "KHR_materials_transmission": {
          "transmissionFactor": 1.0
        }
      },
      "name": "Material.007",
      "pbrMetallicRoughness": {
        "baseColorFactor": [
          0.473518,
          0.165377,
          0.0511146,
          0.25
        ],
        "metallicFactor": 0.0,
        "roughnessFactor": 0.0
      }
    },
    {
      "alphaMode": "BLEND",
      "doubleSided": true,
      "name": "Material.008",
      "pbrMetallicRoughness": {
        "baseColorTexture": {
          "index": 1
        },
        "metallicFactor": 0.0
      }
    }
  ],
  "meshes": [
    {
      "name": "Object_0",
      "primitives": [
        {
          "attributes": {
            "NORMAL": 1,
            "POSITION": 0,
            "TEXCOORD_0": 2
          },
          "indices": 3,
          "material": 0,
          "mode": 4
        }
      ]
    },
    {
      "name": "Object_1",
      "primitives": [
        {
          "attributes": {
            "NORMAL": 5,
            "POSITION": 4,
            "TEXCOORD_0": 6
          },
          "indices": 7,
          "material": 1,
          "mode": 4
        }
      ]
    },
    {
      "name": "Object_2",
      "primitives": [
        {
          "attributes": {
            "NORMAL": 9,
            "POSITION": 8,
            "TEXCOORD_0": 10
          },
          "indices": 11,
          "material": 2,
          "mode": 4
        }
      ]
    },
    {
      "name": "Object_3",
      "primitives": [
        {
          "attributes": {
            "NORMAL": 13,
            "POSITION": 12,
            "TEXCOORD_0": 14
          },
          "indices": 15,
          "material": 1,
          "mode": 4
        }
      ]
    },
    {
      "name": "Object_4",
      "primitives": [
        {
          "attributes": {
            "NORMAL": 17,
            "POSITION": 16,
            "TEXCOORD_0": 18
          },
          "indices": 19,
          "material": 3,
          "mode": 4
        }
      ]
    },
    {
      "name": "Object_5",
      "primitives": [
        {
          "attributes": {
            "NORMAL": 21,
            "POSITION": 20,
            "TEXCOORD_0": 22
          },
          "indices": 23,
          "material": 4,
          "mode": 4
        }
      ]
    },
    {
      "name": "Object_6",
      "primitives": [
        {
          "attributes": {
            "NORMAL": 25,
            "POSITION": 24,
            "TEXCOORD_0": 26
          },
          "indices": 27,
          "material": 5,
          "mode": 4
        }
      ]
    },
    {
      "name": "Object_7",
      "primitives": [
        {
          "attributes": {
            "NORMAL": 29,
            "POSITION": 28,
            "TEXCOORD_0": 30
          },
          "indices": 31,
          "material": 6,
          "mode": 4
        }
      ]
    },
    {
      "name": "Object_8",
      "primitives": [
        {
          "attributes": {
            "NORMAL": 33,
            "POSITION": 32,
            "TEXCOORD_0": 34
          },
          "indices": 35,
          "material": 7,
          "mode": 4
        }
      ]
    },
    {
      "name": "Object_9",
      "primitives": [
        {
          "attributes": {
            "NORMAL": 37,
            "POSITION": 36,
            "TEXCOORD_0": 38
          },
          "indices": 39,
          "material": 8,
          "mode": 4
        }
      ]
    }
  ],
  "nodes": [
    {
      "children": [
        1
      ],
      "matrix": [
        1.0,
        0.0,
        0.0,
        0.0,
        0.0,
        2.220446049250313e-16,
        -1.0,
        0.0,
        0.0,
        1.0,
        2.220446049250313e-16,
        0.0,
        0.0,
        0.0,
        0.0,
        1.0
      ],
      "name": "Sketchfab_model"
    },
    {
      "children": [
        2
      ],
      "name": "root"
    },
    {
      "children": [
        3
      ],
      "matrix": [
        1.0,
        0.0,
        0.0,
        0.0,
        0.0,
        2.220446049250313e-16,
        1.0,
        0.0,
        0.0,
        -1.0,
        2.220446049250313e-16,
        0.0,
        0.0,
        0.0,
        0.0,
        1.0
      ],
      "name": "GLTF_SceneRootNode"
    },
    {
      "children": [
        4,
        6,
        8,
        11,
        13,
        15,
        18,
        20
      ],
      "name": "Empty_8"
    },
    {
      "children": [
        5
      ],
      "matrix": [
        1.0,
        0.0,
        0.0,
        0.0,
        0.0,
        1.0,
        0.0,
        0.0,
        0.0,
        0.0,
        1.0,
        0.0,
        -0.040380802005529404,
        0.0,
        0.0,
        1.0
      ],
      "name": "BezierCurve_0"
    },
    {
      "mesh": 0,
      "name": "Object_5"
    },
    {
      "children": [
        7
      ],
      "matrix": [
        1.0,
        0.0,
        0.0,
        0.0,
        0.0,
        1.0,
        0.0,
        0.0,
        0.0,
        0.0,
        1.0,
        0.0,
        -0.040380802005529404,
        0.0,
        0.0,
        1.0
      ],
      "name": "BezierCurve.001_1"
    },
    {
      "mesh": 1,
      "name": "Object_7"
    },
    {
      "children": [
        9,
        10
      ],
      "matrix": [
        1.0,
        0.0,
        0.0,
        0.0,
        0.0,
        1.0,
        0.0,
        0.0,
        0.0,
        0.0,
        1.0,
        0.0,
        -0.040380802005529404,
        0.0,
        0.0,
        1.0
      ],
      "name": "BezierCurve.002_2"
    },
    {
      "mesh": 2,
      "name": "Object_9"
    },
    {
      "mesh": 3,
      "name": "Object_10"
    },
    {
      "children": [
        12
      ],
      "matrix": [
        1.0,
        0.0,
        0.0,
        0.0,
        0.0,
        1.0,
        0.0,
        0.0,
        0.0,
        0.0,
        1.0,
        0.0,
        -0.040380802005529404,
        0.0,
        0.0,
        1.0
      ],
      "name": "BezierCurve.003_3"
    },
    {
      "mesh": 4,
      "name": "Object_12"
    },
    {
      "children": [
        14
      ],
      "matrix": [
        1.0,
        0.0,
        0.0,
        0.0,
        0.0,
        1.0,
        0.0,
        0.0,
        0.0,
        0.0,
        1.0,
        0.0,
        0.044637784361839294,
        0.01689046248793602,
        0.0,
        1.0
      ],
      "name": "Plane_4"
    },
    {
      "mesh": 5,
      "name": "Object_14"
    },
    {
      "children": [
        16,
        17
      ],
      "matrix": [
        1.0,
        0.0,
        0.0,
        0.0,
        0.0,
        1.0,
        0.0,
        0.0,
        0.0,
        0.0,
        1.0,
        0.0,
        0.044637784361839294,
        0.01689046248793602,
        0.0,
        1.0
      ],
      "name": "Plane.001_5"
    },
    {
      "mesh": 6,
      "name": "Object_16"
    },
    {
      "mesh": 7,
      "name": "Object_17"
    },
    {
      "children": [
        19
      ],
      "matrix": [
        1.0,
        0.0,
        0.0,
        0.0,
        0.0,
        1.0,
        0.0,
        0.0,
        0.0,
        0.0,
        1.0,
        0.0,
        0.044637784361839294,
        0.01689046248793602,
        0.0,
        1.0
      ],
      "name": "Plane.002_6"
    },
    {
      "mesh": 8,
      "name": "Object_19"
    },
    {
      "children": [
        21
      ],
      "matrix": [
        1.0,
        0.0,
        0.0,
        0.0,
        0.0,
        1.0,
        0.0,
        0.0,
        0.0,
        0.0,
        1.0,
        0.0,
        0.044637784361839294,
        0.01689046248793602,
        0.0,
        1.0
      ],
      "name": "Plane.003_7"
    },
    {
      "mesh": 9,
      "name": "Object_21"
    }
  ],
  "samplers": [
    {
      "magFilter": 9729,
      "minFilter": 9987,
      "wrapS": 33071,
      "wrapT": 33071
    }
  ],
  "scene": 0,
  "scenes": [
    {
      "name": "Sketchfab_Scene",
      "nodes": [
        0
      ]
    }
  ],
  "textures": [
    {
      "sampler": 0,
      "source": 0
    },
    {
      "sampler": 0,
      "source": 1
    }
  ]
}
